# xmcd CD database file
#
# Track frame offsets:
#	150
#	22705
#	45903
#	64110
#	84265
#	119639
#	137278
#	146054
#	160887
#	180429
#	214133
#	234145
#	254316
#
# Disc length: 3658 seconds
#
# Revision: 0
# Processed by: cddbd v1.5.2PL0 Copyright (c) Steve Scherf et al.
# Submitted via: CDex 1.70beta2
#
DISCID=9e0e480d
DTITLE=Steuart Liebig - Always Outnumbered
DYEAR=2008
DGENRE=Jazz
TTITLE0=07-04-00
TTITLE1=Serenade
TTITLE2=Wrong How Long
TTITLE3=Stutterstep
TTITLE4=Fearless
TTITLE5=Clean, Shaved And Sober
TTITLE6=Bobtail
TTITLE7=Cooked And Chopped
TTITLE8=Chucktown
TTITLE9=Mercy Kitchen
TTITLE10=Sunshine Candy
TTITLE11=Barrelfoot Grind
TTITLE12=Lonewolf
EXTD=YEAR: 2008
EXTT0=
EXTT1=
EXTT2=
EXTT3=
EXTT4=
EXTT5=
EXTT6=
EXTT7=
EXTT8=
EXTT9=
EXTT10=
EXTT11=
EXTT12=
PLAYORDER=
